<svg height="80" viewBox="0 0 90 80" width="90" xmlns="http://www.w3.org/2000/svg"><g fill="#3a001e"><path d="m71.069 63.023c-.79-.522-1.874-.334-2.422.419-.53.73-1.131 1.44-1.787 2.11-.44.45-1.044.991-1.702 1.525a1.607 1.607 0 0 0 -.198 2.34c.345.385.834.583 1.327.583.398 0 .8-.13 1.127-.396a23.94 23.94 0 0 0 1.991-1.789 22.313 22.313 0 0 0 2.103-2.483c.548-.753.35-1.787-.44-2.309zm-7.601 7.102a1.761 1.761 0 0 0 -2.356-.864l-.055.026c-.896.4-1.3 1.46-.906 2.369a1.77 1.77 0 0 0 1.622 1.071c.239 0 .482-.05.714-.153a6.39 6.39 0 0 0 .13-.06 1.808 1.808 0 0 0 .851-2.389z"/><path d="m84.749 0h-79.499c-2.894 0-5.25 2.331-5.25 5.196v48.74c0 2.864 2.356 5.194 5.251 5.194h37.017c1.57 6.568 5.118 11.22 8.22 14.201 4.525 4.352 9.714 6.669 11.719 6.669 2.006 0 7.195-2.317 11.722-6.668 3.101-2.98 6.65-7.633 8.219-14.201h2.6c2.896-.001 5.252-2.331 5.252-5.196v-48.74c0-2.863-2.356-5.195-5.251-5.195zm-5.296 52.003c0 9.163-4.275 15.241-7.862 18.727-4.254 4.134-8.618 5.743-9.382 5.791-.765-.048-5.129-1.656-9.383-5.791-3.587-3.486-7.862-9.564-7.862-18.727v-8.563a79.133 79.133 0 0 0 17.245-7.216 81.876 81.876 0 0 0 17.244 7.215v8.565zm7.031 1.932c0 .947-.779 1.717-1.735 1.717h-1.989c.135-1.165.209-2.38.209-3.649v-9.883c0-.785-.532-1.472-1.297-1.678-6.383-1.715-12.807-4.387-18.575-7.728a1.775 1.775 0 0 0 -1.777 0c-5.932 3.436-12.008 5.963-18.574 7.728a1.742 1.742 0 0 0 -1.297 1.678v9.883c0 1.269.073 2.484.208 3.65h-36.406c-.957 0-1.735-.771-1.735-1.718v-29.587h82.968zm0-33.066h-82.968v-6.956h82.968zm0-10.434h-82.968v-5.24c0-.946.778-1.717 1.735-1.717h79.499c.956 0 1.735.77 1.735 1.718v5.239z"/><path d="m21.236 36.364c-1.052 0-2.092.209-3.053.608a7.924 7.924 0 0 0 -3.055-.608c-4.331 0-7.855 3.466-7.855 7.727 0 4.26 3.523 7.727 7.855 7.727a7.922 7.922 0 0 0 3.055-.608c.961.399 2 .608 3.053.608 4.331 0 7.855-3.467 7.855-7.727 0-4.261-3.524-7.727-7.855-7.727zm-6.108 12.02c-2.407 0-4.364-1.926-4.364-4.293s1.957-4.293 4.364-4.293c2.406 0 4.363 1.926 4.363 4.293s-1.957 4.293-4.363 4.293zm6.54-.021a7.593 7.593 0 0 0 1.314-4.272 7.594 7.594 0 0 0 -1.313-4.272c2.203.215 3.93 2.049 3.93 4.272s-1.727 4.057-3.93 4.272zm-3.45-20.181h-9.164c-.984 0-1.781.814-1.781 1.818s.797 1.818 1.781 1.818h9.164c.984 0 1.782-.814 1.782-1.818s-.798-1.818-1.782-1.818zm4.552 0h-.085c-.98 0-1.776.814-1.776 1.818s.795 1.818 1.776 1.818h.084c.981 0 1.776-.814 1.776-1.818s-.795-1.818-1.776-1.818zm48.542 19.586a1.756 1.756 0 0 0 -2.446 0l-9.249 9.053-4.846-4.744a1.757 1.757 0 0 0 -2.446 0 1.668 1.668 0 0 0 0 2.394l6.07 5.942c.337.33.78.496 1.222.496.443 0 .886-.165 1.223-.496l10.472-10.25a1.668 1.668 0 0 0 0-2.395z"/></g></svg>