<svg height="80" viewBox="0 0 98 80" width="98" xmlns="http://www.w3.org/2000/svg"><g fill="#3a001e"><path d="m90.918 0h-9.104a1.435 1.435 0 0 0 0 2.87h9.104a3.236 3.236 0 0 1 3.233 3.233v21.902a3.236 3.236 0 0 1 -3.233 3.232h-33.554c-.38 0-.745.152-1.015.42l-8.265 8.265v-7.25c0-.792-.642-1.435-1.434-1.435h-2.733a3.236 3.236 0 0 1 -3.233-3.232v-21.902a3.236 3.236 0 0 1 3.233-3.233h33.113a1.436 1.436 0 0 0 0-2.87h-33.113a6.11 6.11 0 0 0 -6.103 6.103v21.902a6.11 6.11 0 0 0 6.103 6.103h1.298v9.279a1.435 1.435 0 0 0 2.45 1.015l10.293-10.294h32.96a6.11 6.11 0 0 0 6.103-6.103v-21.902a6.11 6.11 0 0 0 -6.103-6.103z"/><path d="m52.063 18.406c1.702-1.164 3.82-2.614 3.82-5.093 0-1.176-.477-2.179-1.377-2.9-.797-.637-1.894-1.003-3.012-1.003-2.064 0-4.258 1.27-4.258 3.621 0 1.037.437 1.542 1.335 1.542 1.014 0 1.56-.563 1.56-1.092 0-.878.504-1.381 1.381-1.381 1.034 0 1.4.704 1.4 1.306 0 1.115-1.314 2.08-2.706 3.101-1.57 1.153-3.194 2.345-3.194 3.905v1.818c0 .563.768.923 1.297.923h6.67c.481 0 .904-.615.904-1.317 0-.681-.423-1.279-.904-1.279h-4.885v-.145c0-.657.913-1.282 1.97-2.006zm11.757 4.746c1.021 0 1.486-.478 1.486-.922v-1.963h.781c.467 0 .924-.68.924-1.372 0-.944-.479-1.373-.924-1.373h-.781v-1.288c0-.416-.389-.904-1.485-.904s-1.485.487-1.485.904v1.288h-1.548l3.298-6.617a.943.943 0 0 0 .096-.366c0-.306-.196-.599-.552-.826-.29-.184-.656-.303-.933-.303-.545 0-.985.27-1.239.763l-4.327 8.485a1.216 1.216 0 0 0 -.153.574c0 .62.402 1.035.999 1.035h4.359v1.962c0 .445.465.923 1.485.923zm11.2-14.027-6.573 13.505a.86.86 0 0 0 -.097.366c0 .491.431 1.017 1.073 1.017.377 0 .732-.198.865-.481l6.594-13.507a.837.837 0 0 0 .077-.367c0-.608-.583-1.017-1.13-1.017-.368 0-.663.176-.807.483zm5.024 5.035c.816 0 1.504-.422 1.504-.923v-1.231h3.306v1.28l-4.606 7.977a.982.982 0 0 0 -.133.498c0 .886.99 1.504 1.878 1.504.423 0 .7-.133.845-.407l4.384-8.392c.141-.265.602-1.177.602-1.79v-2.343c0-.402-.63-.923-1.298-.923h-6.65c-.655 0-1.298.458-1.298.923v2.904c0 .51.658.924 1.466.924zm-20.514 35.662a3.927 3.927 0 0 0 -2.794-1.157c-1.056 0-2.048.41-2.795 1.157l-8.771 8.771c-3.493-1.825-6.532-3.566-9.927-6.43a1.435 1.435 0 0 0 -1.85 2.195c3.922 3.306 7.335 5.172 11.39 7.268a1.435 1.435 0 0 0 1.672-.26l4.72-4.719 15.557 15.558c-5.025 4.314-12.141 5.816-20.221 4.227-9.087-1.787-18.703-7.381-27.076-15.755-8.373-8.373-13.969-17.99-15.756-27.076-1.588-8.08-.086-15.197 4.227-20.222l15.56 15.56-4.721 4.72a1.435 1.435 0 0 0 -.26 1.673c2.858 5.526 5.164 9.58 10.94 15.357a1.436 1.436 0 0 0 2.029-2.03c-5.178-5.178-7.348-8.764-9.936-13.714l8.772-8.773a3.924 3.924 0 0 0 1.158-2.795c0-1.056-.41-2.049-1.158-2.795l-14.067-14.068a3.925 3.925 0 0 0 -2.795-1.158 3.927 3.927 0 0 0 -2.795 1.158l-3.782 3.782c-5.755 5.754-7.881 14.228-5.988 23.858 1.896 9.64 7.77 19.78 16.542 28.553 8.772 8.771 18.912 14.646 28.552 16.54 2.295.452 4.523.675 6.666.675 6.847 0 12.81-2.279 17.193-6.663l3.781-3.78a3.926 3.926 0 0 0 1.158-2.795c0-1.056-.411-2.049-1.158-2.795l-14.066-14.067zm-46.866-41.279c.203-.204.475-.317.765-.317s.561.113.765.317l14.069 14.069c.204.203.317.475.317.765s-.113.561-.317.765l-2.767 2.767-15.6-15.6zm58.904 58.907-2.767 2.767-15.597-15.598 2.767-2.767c.204-.204.476-.317.765-.317s.56.113.765.317l14.067 14.067c.422.422.422 1.11 0 1.531z"/></g></svg>