<svg height="22" viewBox="0 0 20 22" width="20" xmlns="http://www.w3.org/2000/svg"><path d="m5.3014256 13.1684885h11.0291456c1.2506006 0 2.2708274-1.0193832 2.2708274-2.2689496v-4.63654934c0-.00411042 0-.01233125 0-.01644167 0-.01233125 0-.02055208 0-.03288333 0-.00822083 0-.01644166-.0041138-.02466249 0-.00822083-.0041138-.02055208-.0041138-.02877291 0-.00822084-.0041139-.01644167-.0041139-.0246625-.0041138-.00822083-.0041138-.01644166-.0082276-.02877291-.0041138-.00822084-.0041138-.01644167-.0082276-.0246625s-.0041138-.01644166-.0082277-.0246625c-.0041138-.00822083-.0082276-.01644166-.0123414-.02877291-.0041138-.00822083-.0082276-.01644166-.0123415-.02055208-.0041138-.00822083-.0082276-.01644166-.0123414-.02466249-.0041138-.00822084-.0082277-.01233125-.0123415-.02055208-.0041138-.00822084-.0123414-.01644167-.0164552-.0246625-.0041139-.00822083-.0082277-.01233125-.0164553-.02055208-.0041138-.00822083-.0123415-.01233125-.0164553-.02055208s-.0123414-.01233125-.0164553-.02055208c-.0041138-.00822083-.0123414-.01233125-.0164552-.01644167-.0082277-.00822083-.0123415-.01233124-.0205691-.02055208-.0082277-.00411041-.0123415-.01233124-.0205691-.01644166s-.0164553-.01233125-.0246829-.01644166c-.0082276-.00411042-.0123415-.00822084-.0205691-.01233125-.0082276-.00411042-.0164553-.00822083-.0246829-.01644167-.0082276-.00411041-.0164553-.00822083-.0246829-.01233125-.0082277-.00411041-.0164553-.00822083-.0246829-.01233124-.0082277-.00411042-.0164553-.00822084-.0246829-.01233125-.0082277-.00411042-.0164553-.00411042-.0246829-.00822083-.0082277-.00411042-.0205691-.00822084-.0287968-.00822084-.0082276 0-.0164552-.00411041-.0205691-.00411041-.0123414-.00411042-.020569-.00411042-.0329105-.00411042-.0041138 0-.0082276-.00411041-.0164553-.00411041l-13.97875291-1.92778513v-1.94833721c0-.02055208 0-.04110416-.00411382-.05754582 0-.00411042 0-.00822084-.00411381-.01644167 0-.01233125-.00411382-.0246625-.00411382-.03699374-.00411382-.01233125-.00411382-.02055208-.00822764-.03288333 0-.00822083-.00411382-.01233125-.00411382-.02055208-.00411381-.01233125-.00822763-.0246625-.01234145-.03699375 0-.00411041-.00411382-.01233124-.00411382-.01644166-.00411381-.01233125-.00822763-.02055208-.01645527-.03288333-.00411382-.00411042-.00411382-.01233125-.00822763-.01644166-.00411382-.00822084-.00822764-.01644167-.01645527-.0246625-.00411382-.00822083-.00822764-.01233125-.01234146-.02055208s-.00822763-.01233125-.01234145-.02055208-.01234146-.01644166-.01645527-.0246625c-.00411382-.00411041-.00822764-.00822083-.01234146-.01233124-.00822763-.00822084-.01645527-.01644167-.0246829-.0246625-.00411382-.00411042-.00822764-.00822083-.01234146-.01233125-.00822763-.00822083-.01645527-.01644166-.02879672-.0246625-.00411382-.00411041-.01234145-.00822083-.01645527-.01233124-.00822764-.00822084-.01645527-.01233125-.02468291-.02055208-.01234145-.00822084-.02468291-.01644167-.03291054-.02055208-.00411382-.00411042-.00822764-.00411042-.01234146-.00822084-.01645527-.00822083-.03702436-.01644166-.05347963-.02466249l-3.03188373-1.27422898c-.28385343-.11920206-.60884503.01233125-.72814575.29594996s.01234145.60834157.29619488.72754364l2.69043685 1.13447483v2.51557462.39871036 3.05814954 2.73342668 3.4527495c0 1.1509165.86390174 2.104533 1.97874637 2.2483976-.20157707.3370541-.32087779.731654-.32087779 1.1509165 0 1.2372352 1.00788537 2.2401767 2.24203071 2.2401767 1.23414535 0 2.24203071-1.0070519 2.24203071-2.2401767 0-.4110417-.11107308-.8015312-.30853633-1.1303645h4.99417487c-.1974633.3329437-.3085364.7193228-.3085364 1.1303645 0 1.2372352 1.0078854 2.2401767 2.2420307 2.2401767 1.2341454 0 2.2420307-1.0070519 2.2420307-2.2401767 0-1.2331249-1.0078853-2.2401768-2.2420307-2.2401768h-10.4902354c-.64175558 0-1.16009663-.5220228-1.16009663-1.1591373v-1.5044123c.33733306.1973.73637339.3123916 1.16009663.3123916zm2.76448557 4.5872243c0 .6247833-.51011341 1.1303645-1.1312999 1.1303645s-1.1312999-.5096916-1.1312999-1.1303645c0-.6206728.51011341-1.1303644 1.1312999-1.1303644s1.1312999.5055812 1.1312999 1.1303644zm8.86116353 0c0 .6247833-.5101134 1.1303645-1.1312998 1.1303645-.6211865 0-1.1312999-.5096916-1.1312999-1.1303645 0-.6206728.5101134-1.1303644 1.1312999-1.1303644.6211864 0 1.1312998.5055812 1.1312998 1.1303644zm-.5965035-5.6970366h-11.0291456c-.64175558 0-1.16009663-.5220228-1.16009663-1.1591373v-2.73342671-3.05814954-.20552081l13.34933883 1.83735598v4.15563058c0 .6453354-.5224549 1.1632478-1.1600966 1.1632478z" fill="#fff" stroke="#fff" stroke-width=".5" transform="translate(1 1)"/></svg>