<svg height="22" viewBox="0 0 23 22" width="23" xmlns="http://www.w3.org/2000/svg"><g fill="#3a001e" transform="matrix(-1 0 0 1 22.916667 0)"><path d="m11.4583333 11.9166667c3.2898987 0 5.9583334-2.67256808 5.9583334-5.96747434s-2.6684742-5.94919236-5.9583334-5.94919236c-3.28985909 0-5.9583333 2.67256805-5.9583333 5.94919236 0 3.2766243 2.6684347 5.96747434 5.9583333 5.96747434zm0-10.36072226c2.4125634 0 4.3865184 1.97694376 4.3865184 4.39324792s-1.973955 4.39320834-4.3865184 4.39320834c-2.41256332 0-4.38651831-1.97694375-4.38651831-4.39324791s1.97391548-4.39320835 4.38651831-4.39320835z"/><path d="m.80903647 22h21.29859373c.4515571 0 .8090365-.3467865.8090365-.7848368 0-4.1067512-3.4431333-7.4651632-7.6953437-7.4651632h-7.5259793c-4.23337859 0-7.6953437 3.3401434-7.6953437 7.4651632 0 .4380503.35747934.7848368.80903647.7848368zm6.88630723-6.6803263h7.5259793c3.0856539 0 5.6256729 2.2267886 6.0208159 5.1106132h-19.56761116c.39510232-2.8655561 2.93516202-5.1106132 6.02081596-5.1106132z"/></g></svg>