<svg height="22" viewBox="0 0 18 22" width="18" xmlns="http://www.w3.org/2000/svg"><path d="m234.604499 474.017178-1.259714-14.185276c-.026994-.314929-.292433-.553374-.602863-.553374h-2.591411c-.035992-2.366463-1.970552-4.278528-4.346012-4.278528s-4.31002 1.912065-4.346012 4.278528h-2.591411c-.314929 0-.575869.238445-.602863.553374l-1.259714 14.185276c0 .017996-.004499.035992-.004499.053988 0 1.615133 1.480164 2.928834 3.302249 2.928834h11.004499c1.822086 0 3.30225-1.313701 3.30225-2.928834 0-.017996 0-.035992-.004499-.053988zm-8.8-17.802454c1.705112 0 3.095297 1.367689 3.131288 3.063804h-6.262576c.035991-1.696115 1.426176-3.063804 3.131288-3.063804zm5.502249 19.570552h-11.004499c-1.14274 0-2.069529-.755828-2.087525-1.687116l1.205726-13.600409h2.033538v1.84458c0 .337424.269938.607362.607362.607362.337423 0 .607362-.269938.607362-.607362v-1.84458h6.267075v1.84458c0 .337424.269939.607362.607362.607362.337424 0 .607362-.269938.607362-.607362v-1.84458h2.033538l1.210225 13.600409c-.017996.931288-.949284 1.687116-2.087526 1.687116z" fill="#1d2228" transform="translate(-217 -455)"/></svg>