<svg height="16" viewBox="0 0 15 16" width="15" xmlns="http://www.w3.org/2000/svg"><path d="m224.24114 353.534791h8.823317c1.00048 0 1.816662-.815507 1.816662-1.81516v-3.709239c0-.003289 0-.009865 0-.013154 0-.009865 0-.016441 0-.026306 0-.006577 0-.013154-.003291-.01973 0-.006577-.003291-.016442-.003291-.023019 0-.006576-.003291-.013153-.003291-.01973-.003291-.006576-.003291-.013153-.006582-.023018-.003291-.006577-.003291-.013153-.006582-.01973-.003292-.006577-.003292-.013153-.006583-.01973s-.006582-.013153-.009873-.023018c-.003291-.006577-.006582-.013154-.009873-.016442-.003291-.006577-.006582-.013153-.009873-.01973s-.006582-.009865-.009873-.016442c-.003291-.006576-.009873-.013153-.013164-.01973-.003292-.006576-.006583-.009865-.013165-.016441-.003291-.006577-.009873-.009865-.013164-.016442s-.009873-.009865-.013164-.016442c-.003291-.006576-.009873-.009865-.013164-.013153-.006582-.006577-.009874-.009865-.016456-.016442-.006582-.003288-.009873-.009865-.016455-.013153s-.013164-.009865-.019746-.013153c-.006582-.003289-.009873-.006577-.016455-.009865-.006583-.003289-.013165-.006577-.019747-.013154-.006582-.003288-.013164-.006576-.019746-.009865-.006582-.003288-.013164-.006576-.019746-.009865-.006583-.003288-.013165-.006576-.019747-.009865-.006582-.003288-.013164-.003288-.019746-.006576-.006582-.003289-.016455-.006577-.023037-.006577-.006583 0-.013165-.003288-.016456-.003288-.009873-.003289-.016455-.003289-.026328-.003289-.003291 0-.006582-.003288-.013164-.003288l-11.183003-1.542228v-1.55867c0-.016441 0-.032883-.003291-.046036 0-.003289 0-.006577-.003291-.013154 0-.009865-.003291-.01973-.003291-.029595-.003291-.009865-.003291-.016441-.006582-.026306 0-.006577-.003291-.009865-.003291-.016442-.003291-.009865-.006582-.01973-.009873-.029595 0-.003288-.003291-.009865-.003291-.013153-.003291-.009865-.006582-.016442-.013165-.026307-.003291-.003288-.003291-.009865-.006582-.013153-.003291-.006577-.006582-.013154-.013164-.01973-.003291-.006577-.006582-.009865-.009873-.016442s-.006582-.009865-.009873-.016442c-.003291-.006576-.009873-.013153-.013164-.01973-.003291-.003288-.006583-.006576-.009874-.009865-.006582-.006576-.013164-.013153-.019746-.01973-.003291-.003288-.006582-.006576-.009873-.009865-.006582-.006576-.013164-.013153-.023037-.01973-.003291-.003288-.009874-.006576-.013165-.009865-.006582-.006576-.013164-.009865-.019746-.016441-.009873-.006577-.019746-.013154-.026328-.016442-.003291-.003288-.006583-.003288-.009874-.006577-.013164-.006576-.029619-.013153-.042783-.01973l-2.425507-1.019383c-.227083-.095362-.487076.009865-.582517.23676-.09544.226895.009873.486673.236956.582035l2.15235.90758v2.012459.318969 2.446519 2.186742 2.762199c0 .920734.691121 1.683627 1.582997 1.798718-.161262.269644-.256703.585324-.256703.920734 0 .989788.806309 1.792141 1.793625 1.792141s1.793625-.805642 1.793625-1.792141c0-.328834-.088859-.641225-.24683-.904292h3.99534c-.15797.266355-.246829.575458-.246829.904292 0 .989788.806309 1.792141 1.793625 1.792141s1.793624-.805642 1.793624-1.792141c0-.9865-.806308-1.792142-1.793624-1.792142h-8.392189c-.513404 0-.928077-.417618-.928077-.92731v-1.203529c.269867.157839.589099.249913.928077.249913zm2.211589 3.669779c0 .499827-.408091.904292-.90504.904292s-.90504-.407753-.90504-.904292c0-.496538.408091-.904291.90504-.904291s.90504.404465.90504.904291zm7.088931 0c0 .499827-.408091.904292-.90504.904292s-.90504-.407753-.90504-.904292c0-.496538.408091-.904291.90504-.904291s.90504.404465.90504.904291zm-.477203-4.557629h-8.823317c-.513404 0-.928077-.417618-.928077-.92731v-2.186741-2.44652-.164417l10.679471 1.469885v3.324505c0 .516268-.417964.930598-.928077.930598z" fill="#3a001e" transform="translate(-220 -343)"/></svg>