<svg height="34" viewBox="0 0 124 34" width="124" xmlns="http://www.w3.org/2000/svg" xmlns:xlink="http://www.w3.org/1999/xlink"><linearGradient id="a"><stop offset="0" stop-color="#ff5b36"/><stop offset="1" stop-color="#ff0069"/></linearGradient><linearGradient id="b" x1="-.019641%" x2="99.995381%" xlink:href="#a" y1="50.000531%" y2="50.000531%"/><linearGradient id="c" x1=".009818%" x2="99.994678%" xlink:href="#a" y1="49.997655%" y2="49.997655%"/><linearGradient id="d" x1=".000123%" x2="99.998879%" xlink:href="#a" y1="49.999412%" y2="49.999412%"/><mask id="e" fill="#fff"><path d="m.19748571 4.00217143c0 1.76605714 1.43074286 3.19782857 3.1968 3.19782857 1.76605715 0 3.19885715-1.43177143 3.19885715-3.19782857 0-1.76708572-1.4328-3.19885714-3.19885715-3.19885714-1.76605714 0-3.1968 1.43177142-3.1968 3.19885714" fill="none"/></mask><mask id="f" fill="#fff"><path d="m.79405714 3.57634286c0 1.43382857 1.16125715 2.59508571 2.59508572 2.59508571 1.43177143 0 2.59405714-1.16125714 2.59405714-2.59508571 0-1.43177143-1.16228571-2.59302857-2.59405714-2.59302857-1.43382857 0-2.59508572 1.16125714-2.59508572 2.59302857" fill="none"/></mask><mask id="g" fill="#fff"><path d="m2.28445714.34662857c-.55645714.00617143-1.11188571.15737143-1.52331428.55131429-.44228572.4248-.63565715 1.02342857-.71177143 1.61897143-.07611429.60274285-.05451429 1.224-.00102857 1.82674285.0504.60068572.12857143 1.17565715.45977143 1.69508572.52457142.8208 1.42868571 1.30422857 2.35337142 1.53462857.21188572.05245714.42377143.10697143.63668572.15942857 1.14068571.28388571 2.29165714.52868571 3.44674286.74777143.18514285 2.18879997.30445714 4.38377147.59554285 6.56125717.216 1.6107428.504 3.2328 1.0224 4.7766857.48651429 1.4482286 1.20548572 2.9016 2.38937146 3.9065143.6891428.5842285 1.5253714.9555428 2.3605714 1.2754285 1.5716571.6027429 3.2266286.9946286 4.8764571 1.3093715 1.6827429.3188571 3.3922286.5214857 5.1006858.6192 1.6611428.0946285 3.3264.1018285 4.9762285-.1347429 1.1314286-.1614857 2.2217143-.4762286 3.1659429-1.1324571 1.2589714-.8712 2.1456-2.1713143 2.7730286-3.5485715.7004571-1.5387428 1.1334857-3.1896 1.4595428-4.8445714.3198857-1.6169143.5862857-3.2688.7642286-4.9083428.1666286-1.5366858.0411428-3.23691433-1.2188572-4.30765719-1.2209142-1.03474285-2.8470857-.93805714-4.3323428-.7848-1.6837714.17485715-3.3624.36205715-5.0502857.47622858-1.6642286.11314285-3.3305143.19028571-4.9978286.22422857-3.2070857.06685714-6.4110857-.03394286-9.6068571-.31062857-.9092572-.08022858-1.81440004-.17794286-2.7195429-.29108572-.00205714-.01954286-.00514286-.04011428-.00822857-.06068571-.18617143-1.3392-.37851429-2.70205715-.77965714-3.99702857-.28491429-.92057143-.78274286-1.75782858-1.65188572-2.23508572-.5688-.31268571-1.21268571-.43611428-1.8504-.51428571-.57908571-.07097143-1.17257143-.18514286-1.75371428-.20982857-.03394286-.00205715-.06891429-.00205715-.10388572-.00308572zm.33017143 4.93714286c-.5544-.12651429-1.188-.4176-1.4112-.9936-.11108571-.28388572-.11622857-.62228572-.13577143-.92262857-.02365714-.35074286-.01748571-.70765715.05348572-1.05325715.05245714-.25508571.14811428-.5544.39188571-.68811428.25302857-.13885714.58217143-.08331429.85165714-.02982857.62537143.12445714 1.34125715.13371428 1.91211429.44331428.26228571.144.45565714.36617143.58114286.63565715.04937143.10285714.12548571.27874285.13474285.36822857.01645715.14914285.07714286.30342857.10902858.44948571.06068571.28902857.10902857.57908572.1512.8712.06582857.46902857.11931428.94114286.16765714 1.41325714-.94011429-.14091428-1.87508572-.30548571-2.80594286-.49371428zm11.22994283 16.08685717c-.8856-.4906286-1.4081143-1.4914286-1.7866285-2.3893715-.4525715-1.0728-.7426286-2.2124571-.9812572-3.3510857-.4093714-1.9604571-.648-3.9497143-.9072-5.93485711.8712.14502857 1.7465143.27462857 2.6208.39394281 2.6948572.3661715 5.4072.5955429 8.1257143.7004572 2.9057143.1131428 5.8062857.0627428 8.7078857-.1162286.5914286-.036 1.2075429-.1254857 1.7958857-.0133714.2427429.0462857.5184.1316571.6325715.3713143.1213714.252.1265142.5595428.1203428.8331428-.0174857.6809143-.1697143 1.3566857-.2838857 2.0262857-.1244571.7323429-.2458286 1.4657143-.3857143 2.196-.2581714 1.3556572-.5729143 2.7216-1.1211428 3.9939429-.2540572.5862857-.5605715 1.1581714-.9648 1.656-.2982858.3661714-.7097143.7776-1.1715429.9370286-.8578286.3178285-1.7804571.4062857-2.6876571.4515428-2.1507429.1049143-4.3045715-.0576-6.4326858-.3641143-1.0316571-.1470857-2.0581714-.3404571-3.0641142-.6078857-.4978286-.1326857-.9925715-.2818285-1.476-.4628571-.1470858-.0545143-.2931429-.1141714-.4371429-.1758857-.0226286-.0092572-.1532571-.0678857-.0956571-.0380572-.0689143-.0349714-.1398858-.0678857-.2077715-.1059428z" fill="none"/></mask><g fill="none" fill-rule="evenodd"><g fill="#3a001e" transform="translate(43.2 3.282046)"><path d="m14.2602171 15.9851314c0-2.7030857-1.8884571-4.8507428-4.66457139-4.8507428-2.77714285 0-4.59154285 2.1476571-4.59154285 4.8507428s1.8144 4.8137143 4.62857143 4.8137143c2.73908571 0 4.62754281-2.1106286 4.62754281-4.8137143zm4.2212572-9.03291426v18.02982856h-4.8867429v-1.4441143c-1.3330285.9627429-2.6660571 1.4441143-3.96205711 1.4441143-5.22102858 0-9.03394286-3.9610286-9.03394286-9.0339428 0-4.8497143 3.81291428-9.2931429 9.03394286-9.0339429 1.77737141.14811429 3.14742861.62948571 3.96205711 1.48114286v-1.48114286z"/><path d="m26.8140343 8.84036571c1.296-1.22194285 2.8501714-1.88845714 4.7016-1.92651428.5914286 0 1.1478857.03805714 1.7033143.14811428l-.8146286 4.92479999c-2.4809143-.6294857-4.3313143-.0370286-5.5902857 1.8514286v11.1435428h-5.0358857v-18.06788567h5.0358857z"/><path d="m35.2933714 24.9829714h5.0729143v-18.10491426h-5.0729143zm2.4798857-24.95519997c1.7413715 0 2.7411429 1.07382857 2.7411429 2.55497143 0 1.44411428-1.0368 2.51691428-2.7030857 2.51691428s-2.7020572-1.0728-2.7020572-2.51691428c0-1.48114286 1.0357715-2.55497143 2.664-2.55497143z"/><path d="m48.6973029 24.9821486h-5.0729143v-18.10491431h5.0729143v1.66628571c1.1838857-1.11085714 2.6290285-1.62925714 4.3313142-1.62925714 4.1832 0 7.0354286 2.8512 7.0354286 6.85028574v11.2176h-5.0729143v-9.9596572c0-2.3688-1.1478857-3.7758857-3.6277714-3.8499428-1.0368.0740571-1.9254857.8506285-2.6660571 2.2947428z"/><path d="m76.0227429 15.948c0-2.7020571-1.8514286-4.8497143-4.6275429-4.8497143-2.7771429 0-4.6285714 2.1836572-4.6285714 4.8497143 0 2.7401143 1.8514285 4.8507429 4.6285714 4.8507429 2.7761143 0 4.6275429-2.1106286 4.6275429-4.8507429m-4.5905143-9.21908571c5.22 0 9.2190857 3.99908571 9.2190857 9.21908571 0 5.2210286-3.9990857 9.2190857-9.2190857 9.2190857-5.2570286 0-9.2190857-4.0361143-9.2190857-9.2190857 0-5.22 3.9620571-9.21908571 9.2190857-9.21908571"/></g><path d="m.19748571 4.00217143c0 1.76605714 1.43074286 3.19782857 3.1968 3.19782857 1.76605715 0 3.19885715-1.43177143 3.19885715-3.19782857 0-1.76708572-1.4328-3.19885714-3.19885715-3.19885714-1.76605714 0-3.1968 1.43177142-3.1968 3.19885714" fill="url(#b)" mask="url(#e)" transform="translate(10.285714 26.424903)"/><path d="m.79405714 3.57634286c0 1.43382857 1.16125715 2.59508571 2.59508572 2.59508571 1.43177143 0 2.59405714-1.16125714 2.59405714-2.59508571 0-1.43177143-1.16228571-2.59302857-2.59405714-2.59302857-1.43382857 0-2.59508572 1.16125714-2.59508572 2.59302857" fill="url(#c)" mask="url(#f)" transform="translate(25.714286 27.453474)"/><g fill="#e6e7e8" transform="translate(12.342857 9.96776)"><path d="m21.3034629.96737143s-.5893715 1.61691428-1.9326858 3.63497143c-.0689142.40011428-.1347428.80022857-.2108571 1.19828571-.2581714 1.35668572-.5729143 2.72262857-1.1211429 3.99394286-.2530285.58628567-.5605714 1.15919997-.9637714 1.65599997-.2982857.3672-.7107428.7786286-1.1725714.9380572-.8568.3168-1.7794286.4052571-2.6866286.4505143-2.1507428.1059428-4.30559999-.0576-6.43371427-.3641143-.15634286-.0216-.3096-.0524572-.46388572-.0781715-1.75268571.0761143-3.67714285-.1049142-5.79805714-.6490285l.11828572 1.6858285 11.80080001 1.6251429 6.6692571-1.0265143 2.3091429-6.15599999.5122286-6.07268571z"/><path d="m13.2156 12.8391429c.9072-.0452572 1.8298286-.1337143 2.6866286-.4505143.4628571-.1594286.8742857-.5708572 1.1725714-.9380572.4042286-.4968.7107429-1.0697143.9637714-1.65599997.5492572-1.27131429.8629715-2.63725714 1.1211429-3.99394286.0771428-.39805714.1419428-.79817143.2108571-1.19828571-2.1569143 3.24-6.2701714 7.50445714-13.0525714 7.79451424.15428571.0257143.30857143.0565715.46388571.0781715 2.12811429.3065143 4.28297139.4700571 6.43371429.3641143"/></g><path d="m2.28445714.34662857c-.55645714.00617143-1.11188571.15737143-1.52331428.55131429-.44228572.4248-.63565715 1.02342857-.71177143 1.61897143-.07611429.60274285-.05451429 1.224-.00102857 1.82674285.0504.60068572.12857143 1.17565715.45977143 1.69508572.52457142.8208 1.42868571 1.30422857 2.35337142 1.53462857.21188572.05245714.42377143.10697143.63668572.15942857 1.14068571.28388571 2.29165714.52868571 3.44674286.74777143.18514285 2.18879997.30445714 4.38377147.59554285 6.56125717.216 1.6107428.504 3.2328 1.0224 4.7766857.48651429 1.4482286 1.20548572 2.9016 2.38937146 3.9065143.6891428.5842285 1.5253714.9555428 2.3605714 1.2754285 1.5716571.6027429 3.2266286.9946286 4.8764571 1.3093715 1.6827429.3188571 3.3922286.5214857 5.1006858.6192 1.6611428.0946285 3.3264.1018285 4.9762285-.1347429 1.1314286-.1614857 2.2217143-.4762286 3.1659429-1.1324571 1.2589714-.8712 2.1456-2.1713143 2.7730286-3.5485715.7004571-1.5387428 1.1334857-3.1896 1.4595428-4.8445714.3198857-1.6169143.5862857-3.2688.7642286-4.9083428.1666286-1.5366858.0411428-3.23691433-1.2188572-4.30765719-1.2209142-1.03474285-2.8470857-.93805714-4.3323428-.7848-1.6837714.17485715-3.3624.36205715-5.0502857.47622858-1.6642286.11314285-3.3305143.19028571-4.9978286.22422857-3.2070857.06685714-6.4110857-.03394286-9.6068571-.31062857-.9092572-.08022858-1.81440004-.17794286-2.7195429-.29108572-.00205714-.01954286-.00514286-.04011428-.00822857-.06068571-.18617143-1.3392-.37851429-2.70205715-.77965714-3.99702857-.28491429-.92057143-.78274286-1.75782858-1.65188572-2.23508572-.5688-.31268571-1.21268571-.43611428-1.8504-.51428571-.57908571-.07097143-1.17257143-.18514286-1.75371428-.20982857-.03394286-.00205715-.06891429-.00205715-.10388572-.00308572zm.33017143 4.93714286c-.5544-.12651429-1.188-.4176-1.4112-.9936-.11108571-.28388572-.11622857-.62228572-.13577143-.92262857-.02365714-.35074286-.01748571-.70765715.05348572-1.05325715.05245714-.25508571.14811428-.5544.39188571-.68811428.25302857-.13885714.58217143-.08331429.85165714-.02982857.62537143.12445714 1.34125715.13371428 1.91211429.44331428.26228571.144.45565714.36617143.58114286.63565715.04937143.10285714.12548571.27874285.13474285.36822857.01645715.14914285.07714286.30342857.10902858.44948571.06068571.28902857.10902857.57908572.1512.8712.06582857.46902857.11931428.94114286.16765714 1.41325714-.94011429-.14091428-1.87508572-.30548571-2.80594286-.49371428zm11.22994283 16.08685717c-.8856-.4906286-1.4081143-1.4914286-1.7866285-2.3893715-.4525715-1.0728-.7426286-2.2124571-.9812572-3.3510857-.4093714-1.9604571-.648-3.9497143-.9072-5.93485711.8712.14502857 1.7465143.27462857 2.6208.39394281 2.6948572.3661715 5.4072.5955429 8.1257143.7004572 2.9057143.1131428 5.8062857.0627428 8.7078857-.1162286.5914286-.036 1.2075429-.1254857 1.7958857-.0133714.2427429.0462857.5184.1316571.6325715.3713143.1213714.252.1265142.5595428.1203428.8331428-.0174857.6809143-.1697143 1.3566857-.2838857 2.0262857-.1244571.7323429-.2458286 1.4657143-.3857143 2.196-.2581714 1.3556572-.5729143 2.7216-1.1211428 3.9939429-.2540572.5862857-.5605715 1.1581714-.9648 1.656-.2982858.3661714-.7097143.7776-1.1715429.9370286-.8578286.3178285-1.7804571.4062857-2.6876571.4515428-2.1507429.1049143-4.3045715-.0576-6.4326858-.3641143-1.0316571-.1470857-2.0581714-.3404571-3.0641142-.6078857-.4978286-.1326857-.9925715-.2818285-1.476-.4628571-.1470858-.0545143-.2931429-.1141714-.4371429-.1758857-.0226286-.0092572-.1532571-.0678857-.0956571-.0380572-.0689143-.0349714-.1398858-.0678857-.2077715-.1059428z" fill="url(#d)" mask="url(#g)" transform="translate(0 -.317954)"/></g></svg>