<svg id="Layer_1" data-name="Layer 1" xmlns="http://www.w3.org/2000/svg" width="784.91" height="171.39" viewBox="0 0 784.91 171.39"><text transform="translate(286.17 120.04)" style="font-size:108px;fill:#343434;font-family:IBMPlexSans-SemiBold, IBM Plex Sans;font-weight:600">Helix<tspan x="258.22" y="0" style="fill:#7ac843;font-size:84px;font-family:MyriadPro-SemiboldIt, Myriad Pro;font-style:italic">Theme</tspan></text><rect x="294.91" y="145" width="55" height="23.5" rx="2" style="fill:#8834bf"/><text transform="translate(299.49 164.39)" style="font-size:22px;fill:#fff;font-family:MyriadPro-Bold, Myriad Pro;font-weight:700;letter-spacing:0.08999911221590909em">P<tspan x="14.76" y="0" style="letter-spacing:0.08600408380681818em">R</tspan><tspan x="29.7" y="0">O</tspan><tspan x="47.45" y="0" style="fill:#343434;font-size:28px;font-family:MyriadPro-Semibold, Myriad Pro;font-weight:600;letter-spacing:0.09000069754464286em"> </tspan><tspan x="55.77" y="0" style="fill:#343434;font-size:28px;font-family:MyriadPro-Semibold, Myriad Pro;font-weight:600;letter-spacing:0.030011858258928572em"> </tspan><tspan x="62.4" y="0" style="fill:#343434;font-size:28px;font-family:MyriadPro-Semibold, Myriad Pro;font-weight:600;letter-spacing:0.09000069754464286em">Joomla</tspan><tspan x="165.25" y="0" xml:space="preserve" style="fill:#343434;font-size:28px;font-family:MyriadPro-Semibold, Myriad Pro;font-weight:600;letter-spacing:0.12001255580357142em"> &amp;</tspan><tspan x="195.82" y="0" style="fill:#343434;font-size:28px;font-family:MyriadPro-Semibold, Myriad Pro;font-weight:600;letter-spacing:0.08400181361607142em"> </tspan><tspan x="203.97" y="0" style="fill:#343434;font-size:28px;font-family:MyriadPro-Semibold, Myriad Pro;font-weight:600;letter-spacing:0.052001953125em">W</tspan><tspan x="229.76" y="0" style="fill:#343434;font-size:28px;font-family:MyriadPro-Semibold, Myriad Pro;font-weight:600;letter-spacing:0.09003557477678571em">o</tspan><tspan x="248.07" y="0" style="fill:#343434;font-size:28px;font-family:MyriadPro-Semibold, Myriad Pro;font-weight:600;letter-spacing:0.08098493303571429em">r</tspan><tspan x="260.31" y="0" style="fill:#343434;font-size:28px;font-family:MyriadPro-Semibold, Myriad Pro;font-weight:600;letter-spacing:0.09001813616071429em">d</tspan><tspan x="279.09" y="0" style="fill:#343434;font-size:28px;font-family:MyriadPro-Semibold, Myriad Pro;font-weight:600;letter-spacing:0.07802036830357142em">P</tspan><tspan x="296.93" y="0" style="fill:#343434;font-size:28px;font-family:MyriadPro-Semibold, Myriad Pro;font-weight:600;letter-spacing:0.08101981026785714em">r</tspan><tspan x="309.17" y="0" style="fill:#343434;font-size:28px;font-family:MyriadPro-Semibold, Myriad Pro;font-weight:600;letter-spacing:0.09001813616071429em">ess </tspan><tspan x="362.84" y="0" style="fill:#343434;font-size:28px;font-family:MyriadPro-Semibold, Myriad Pro;font-weight:600;letter-spacing:0.09598214285714286em">S</tspan><tspan x="380.06" y="0" style="fill:#343434;font-size:28px;font-family:MyriadPro-Semibold, Myriad Pro;font-weight:600;letter-spacing:0.08998325892857142em">olution</tspan></text><path d="M192.36,67.27c1.18,1.16,1.06,1.62,0,2.64-6.88,6.79-13.76,13.59-20.52,20.5-1.64,1.67-2.56,1.57-4.18,0C154.84,77.5,141.84,64.78,129,51.89c-1.84-1.85-2.88-1.77-4.6,0q-25.94,26-52,51.82c-1.63,1.61-1.3,2.5.14,3.94,6.28,6.3,12.44,12.72,18.83,19.29H1.59S126.24,2,126.27,2,171.25,46.39,192.36,67.27Z" transform="translate(-1.59 -2)" style="fill:#343434"/><path d="M185.17,46.69l90.65-.13c-.16,0-125,125.52-125.8,125.44-.39,0-43.45-43.42-64-63.88-2.6-2.59-2.6-2.78-.09-5.29C92.22,96.54,98.55,90.3,104.8,84c1.72-1.75,3-1.82,4.81,0,12.59,12.71,25.3,25.29,37.88,38,1.93,2,3.15,2.09,5.15.06,12.76-13,46.77-46.75,50.89-50.83,2.73-2.7,2.7-3-.06-5.78C198.23,60.12,185.17,46.56,185.17,46.69Z" transform="translate(-1.59 -2)" style="fill:#7ac743"/></svg>