<svg height="697" viewBox="0 0 697 697" width="697" xmlns="http://www.w3.org/2000/svg"><path d="m1147.03114 214.867798c2.15795-2.157947 5.50033 1.193709 3.3447 3.34702l-92.88211 92.884437c-2.15795 2.155629-5.50034-1.196026-3.34702-3.34702zm75.96043-75.961589c2.15795-2.157947 5.50265 1.193709 3.34702 3.34702l-44.34801 44.350331c-2.15795 2.155629-5.50033-1.193709-3.34934-3.34702zm-245.235957 7.805927c0-3.050331 4.733112-3.045695 4.733112 0v131.356623c0 3.050331-4.733112 3.045695-4.733112 0zm0-107.4261257c0-3.0503312 4.733112-3.0456954 4.733112 0v62.7195367c0 3.050331-4.733112 3.048013-4.733112 0zm-167.887815 178.9283447c-2.157947-2.157947 1.193709-5.500331 3.344702-3.34702l92.886755 92.884437c2.155629 2.157947-1.196026 5.500331-3.349337 3.34702zm-75.962748-75.96159c-2.157947-2.157947 1.193709-5.500331 3.34702-3.34702l44.350331 44.350331c2.157947 2.157948-1.193709 5.500332-3.34702 3.34702zm7.807086 245.237119c-3.050331 0-3.045695-4.733112 0-4.733112h131.356623c3.050331 0 3.045695 4.733112 0 4.733112zm-107.426126 0c-3.050331 0-3.045695-4.733112 0-4.733112h62.719537c3.050331 0 3.045695 4.733112 0 4.733112zm178.927417 167.887815c-2.157947 2.157947-5.500331-1.193709-3.344702-3.34702l92.88212-92.884437c2.157947-2.155629 5.500331 1.196027 3.34702 3.349338zm-75.96043 75.961589c-2.157947 2.157947-5.500331-1.193708-3.34702-3.347019l44.348013-44.350332c2.157947-2.155629 5.500332 1.196027 3.349338 3.349338zm245.235728-7.805927c0 3.050331-4.733112 3.045696-4.733112 0v-131.356622c0-3.050331 4.733112-3.045696 4.733112 0zm0 107.427285c0 3.048013-4.733112 3.043378-4.733112 0v-62.721854c0-3.050331 4.733112-3.045696 4.733112 0zm167.888045-178.929503c2.15795 2.157947-1.19371 5.500331-3.3447 3.34702l-92.88676-92.88212c-2.15562-2.157947 1.19603-5.502649 3.34934-3.349337zm75.96252 75.961357c2.15795 2.157947-1.19371 5.500331-3.34702 3.34702l-44.35033-44.348013c-2.15795-2.157947 1.19602-5.502649 3.34702-3.349338zm-7.80686-245.236887c3.05034 0 3.0457 4.733112 0 4.733112h-131.35662c-3.05033 0-3.04569-4.733112 0-4.733112zm107.4259 0c3.05033 0 3.04569 4.733112 0 4.733112h-62.71954c-3.05033 0-3.04569-4.733112 0-4.733112zm-209.8359-193.970927c1.76159-2.491722 5.62318.245695 3.86391 2.732781l-44.4245 62.796027c-1.76159 2.491722-5.62318-.245696-3.86391-2.732782zm49.20722-69.557749c1.76391-2.491721 5.6255.245696 3.86623 2.732782l-21.19007 29.949338c-1.75927 2.489404-5.62086-.248014-3.86391-2.7351zm-227.874335 30.897351c-.51457-3.006291 4.151324-3.801324 4.668212-.799668l12.987086 75.815562c.516887 3.00861-4.149007 3.801325-4.665894.799669zm-14.389404-83.9800658c-.51457-3.0062914 4.151324-3.8013245 4.668212-.7996689l6.195695 36.1566227c.512252 3.008609-4.151324 3.803642-4.665894.801987zm-139.280993 182.9790728c-2.491722-1.761589.245695-5.623179 2.732781-3.863907l62.796026 44.424503c2.491722 1.761589-.248013 5.623179-2.732781 3.863907zm-69.55914-49.208609c-2.489403-1.76159.245696-5.623179 2.7351-3.863908l29.949338 21.187749c2.489404 1.761589-.250332 5.620861-2.7351 3.863907zm30.897583 227.874338c-3.006291.514569-3.801324-4.151325-.799669-4.665895l75.815563-12.989404c3.00861-.516887 3.803643 4.151325.799669 4.665895zm-83.980298 14.389403c-3.008609.51457-3.801324-4.151324-.799669-4.665894l36.158941-6.195695c3.006291-.514569 3.801324 4.151325.799669 4.665894zm182.979073 139.283312c-1.761589 2.489404-5.623179-.248014-3.863907-2.7351l44.424503-62.793708c1.76159-2.491722 5.623179.245695 3.863907 2.732781zm-49.20745 69.55798c-1.763908 2.489404-5.625497-.248013-3.863908-2.735099l21.187749-29.94702c1.759271-2.491722 5.620861.245695 3.863907 2.732781zm227.874574-30.898742c.51456 3.006292-4.15133 3.801325-4.66822.799669l-12.98708-75.815563c-.51689-3.008609 4.149-3.801324 4.66589-.799669zm14.3894 83.980298c.51457 3.008609-4.15133 3.803643-4.66821.799669l-6.1957-36.156622c-.51225-3.00861 4.15133-3.803643 4.66821-.801987zm139.28099-182.979073c2.49172 1.76159-.24569 5.623179-2.73278 3.863908l-62.79603-44.424504c-2.49172-1.761589.24802-5.623179 2.7351-3.863907zm69.55914 49.20861c2.48941 1.761589-.24569 5.623178-2.7351 3.863907l-29.94934-21.187748c-2.4894-1.759272.25034-5.620861 2.7351-3.863908zm-30.89758-227.874338c3.00629-.51457 3.80132 4.151324.79967 4.665894l-75.81557 12.989404c-3.0086.516887-3.80364-4.149007-.79966-4.665894zm83.98007-14.389404c3.0086-.51457 3.80132 4.151324.79966 4.665894l-36.15894 6.195695c-3.00629.51457-3.80132-4.151324-.79967-4.665894zm-145.05298-51.522086c2.60529-1.585431 5.06456 2.461589 2.46158 4.044702l-29.32119 17.836092c-2.6053 1.585431-5.05993-2.461589-2.45927-4.044702zm71.78175-43.668411c2.60762-1.58543 5.06225 2.46159 2.46159 4.044702l-49.54238 30.137086c-2.6053 1.585431-5.05994-2.461589-2.45928-4.044702zm-199.49838-47.514238c.72086-2.96457 5.31954-1.83808 4.59636 1.119536l-8.11954 33.345033c-.72086 2.96457-5.31721 1.840398-4.59867-1.119536zm19.87838-81.635066c.72318-2.96457 5.31954-1.83808 4.59868 1.119536l-13.71954 56.340728c-.72086 2.96457-5.31954 1.83808-4.59868-1.119536zm-174.664834 107.470165c-1.587749-2.607616 2.461589-5.062252 4.042384-2.461589l17.836092 29.318874c1.587749 2.607616-2.459271 5.062252-4.042384 2.461589zm-43.668643-71.781987c-1.587748-2.607616 2.46159-5.062251 4.044702-2.461589l30.137086 49.542384c1.585431 2.605298-2.461589 5.059934-4.044702 2.459272zm-47.514238 199.499537c-2.96457-.723179-1.840398-5.319537 1.119536-4.598676l33.345033 8.119537c2.962252.720861 1.83808 5.319536-1.119536 4.598675zm-81.635066-19.879537c-2.96457-.723178-1.840398-5.319536 1.119536-4.598675l56.340728 13.719536c2.962252.720861 1.83808 5.319537-1.119536 4.598676zm107.469006 174.664835c-2.605298 1.58543-5.062251-2.46159-2.461589-4.044702l29.321192-17.836093c2.605298-1.58543 5.059934 2.461589 2.459271 4.044702zm-71.781755 43.668642c-2.605298 1.585431-5.062251-2.461589-2.461589-4.044702l49.542384-30.137086c2.605298-1.58543 5.059934 2.461589 2.459271 4.044702zm199.500696 47.514239c-.723179 2.964569-5.321855 1.838079-4.598676-1.119537l8.119536-33.345033c.720861-2.964569 5.317219-1.840397 4.598676 1.119536zm-19.880928 81.635066c-.723178 2.964569-5.319536 1.838079-4.598675-1.119537l13.719536-56.340728c.720861-2.96457 5.319537-1.83808 4.598676 1.119536zm174.665062-107.469007c1.58775 2.607616-2.46158 5.062252-4.04238 2.459272l-17.83609-29.318874c-1.58775-2.605298 2.45927-5.062252 4.04238-2.459272zm43.66842 71.780828c1.58774 2.607616-2.46159 5.06457-4.04239 2.461589l-30.1394-49.540066c-1.58543-2.607616 2.46159-5.062251 4.0447-2.461589zm47.51447-199.498609c2.96456.720861 1.84039 5.319536-1.11954 4.598675l-33.34272-8.119536c-2.96457-.723179-1.84039-5.319537 1.11722-4.598676zm81.63506 19.878609c2.96457.723179 1.8404 5.319536-1.11953 4.598675l-56.33842-13.719536c-2.96456-.720861-1.84039-5.317218 1.11722-4.598675zm-77.30271-143.438113c2.85794-1.061589 4.50364 3.374835 1.64801 4.436424l-104.26523 38.764239c-2.86027 1.063907-4.50596-3.374835-1.64802-4.436424zm43.25884-16.082615c2.85794-1.063908 4.50364 3.374834 1.65033 4.436423l-21.07649 7.834437c-2.85795 1.063908-4.50364-3.374834-1.65033-4.436423zm-159.40646-106.269272c1.27252-2.774503 5.57219-.797351 4.30431 1.970199l-46.3159 101.13841c-1.27252 2.774504-5.57218.799669-4.3043-1.970198zm19.21755-41.961755c1.2702-2.774503 5.57219-.797351 4.30199 1.972517l-9.36192 20.44139c-1.26788 2.774504-5.56987.797351-4.30199-1.970198zm-187.861457 37.572616c-1.061589-2.857947 3.377153-4.503642 4.438742-1.648013l38.764238 104.265231c1.063908 2.860265-3.374834 4.503643-4.436423 1.650332zm-16.082616-43.258841c-1.061589-2.860265 3.374835-4.503643 4.436424-1.650331l7.836755 21.07649c1.063907 2.857947-3.374834 4.503642-4.436424 1.648013zm-106.269271 159.405298c-2.772186-1.270199-.797351-5.572186 1.972516-4.304305l101.136093 46.318212c2.776821 1.270199.799669 5.572186-1.970199 4.301987zm-41.959669-19.216391c-2.774503-1.270199-.799669-5.572185 1.970199-4.304304l20.443708 9.36192c2.772186 1.270199.797351 5.572185-1.972516 4.304305zm37.572848 187.860298c-2.860265 1.06159-4.503643-3.377152-1.650331-4.438742l104.265231-38.76192c2.860265-1.063907 4.505961 3.374834 1.650331 4.436424zm-43.261159 16.082616c-2.857947 1.063907-4.503643-3.374834-1.648014-4.436424l21.074173-7.834437c2.860265-1.063907 4.503642 3.374835 1.650331 4.436424zm159.406457 106.269272c-1.270199 2.774503-5.572186.797351-4.301987-1.972517l46.315894-101.136093c1.270199-2.774503 5.569867-.799669 4.301987 1.970199zm-19.21755 41.961986c-1.270199 2.774504-5.569868.797351-4.301987-1.972516l9.361921-20.441391c1.267881-2.774503 5.572185-.799669 4.301987 1.970199zm187.861457-37.574006c1.06391 2.860265-3.37483 4.503642-4.43642 1.650331l-38.76656-104.265232c-1.06159-2.860265 3.37715-4.50596 4.43642-1.650331zm16.08262 43.26c1.0639 2.860265-3.37484 4.503642-4.43643 1.648013l-7.83444-21.074172c-1.0639-2.857947 3.37484-4.503643 4.43643-1.648013zm106.2695-159.405298c2.77218 1.270198.79967 5.572185-1.97252 4.301986l-101.13609-46.315894c-2.7745-1.270198-.79735-5.572185 1.9702-4.301986zm41.96175 19.21639c2.77219 1.270199.79967 5.572186-1.97251 4.301987l-20.44139-9.359602c-2.77451-1.270199-.79967-5.572186 1.97251-4.304305z" fill-rule="evenodd" opacity=".054943" transform="translate(-632 -37)"/></svg>